<?xml version="1.0" encoding="iso-8859-1"?>
<!-- Generator: Adobe Illustrator 25.0.0, SVG Export Plug-In . SVG Version: 6.00 Build 0)  -->
<svg version="1.1" baseProfile="basic" id="Layer_1"
	 xmlns="http://www.w3.org/2000/svg" xmlns:xlink="http://www.w3.org/1999/xlink" x="0px" y="0px" viewBox="0 0 64 64"
	 xml:space="preserve">
<path fill="#35d2a1" d="M41.995,20c1.105-0.003,2.002,0.89,2.005,1.995c0.003,1.105-0.89,2.002-1.995,2.005S40.003,23.11,40,22.005
	C39.997,20.9,40.89,20.003,41.995,20z"/>
<path fill="#35d2a1" d="M31.976,22c5.522-0.013,10.011,4.454,10.024,9.976c0.013,5.522-4.454,10.011-9.976,10.024
	C26.502,42.013,22.013,37.546,22,32.024C21.987,26.502,26.454,22.013,31.976,22z M32.014,38c3.313-0.008,5.993-2.701,5.986-6.014
	c-0.008-3.313-2.701-5.994-6.014-5.986S25.992,28.701,26,32.014C26.008,35.328,28.701,38.008,32.014,38z"/>
<path fill ="#35d2a1" d="M52,32v0.18C52,50.561,50.561,52,32.18,52h-0.36C13.439,52,12,50.561,12,32.18v-0.36C12,13.439,13.439,12,31.82,12H32
	C50.548,12,52,13.452,52,32z M48,36v-8c0-11.129-0.871-12-12-12h-8c-11.129,0-12,0.871-12,12v8c0,11.129,0.871,12,12,12h8
	C47.129,48,48,47.129,48,36z"/>
</svg>